<svg xmlns:dc="http://purl.org/dc/elements/1.1/" xmlns:cc="http://creativecommons.org/ns#" xmlns:rdf="http://www.w3.org/1999/02/22-rdf-syntax-ns#" xmlns:svg="http://www.w3.org/2000/svg" xmlns="http://www.w3.org/2000/svg" xmlns:xlink="http://www.w3.org/1999/xlink" id="svg487964" viewBox="0 0 1024 768" height="768px" width="1024px" version="1.1">
  <metadata id="metadata487970">
    <rdf:rdf>
      <cc:work rdf:about="">
        <dc:format>image/svg+xml</dc:format>
        <dc:type rdf:resource="http://purl.org/dc/dcmitype/StillImage"></dc:type>
      </cc:work>
    </rdf:rdf>
  </metadata>
  <defs id="defs487968"></defs>
  <linearGradient spreadMethod="pad" y2="30%" x2="-10%" y1="120%" x1="30%" id="3d_gradient2-logo-beded3c9-d3c1-4f49-9d8c-9f5016228576">
    <stop id="stop487945" stop-opacity="1" stop-color="#ffffff" offset="0%"></stop>
    <stop id="stop487947" stop-opacity="1" stop-color="#000000" offset="100%"></stop>
  </linearGradient>
  <linearGradient gradientTransform="rotate(-30)" spreadMethod="pad" y2="30%" x2="-10%" y1="120%" x1="30%" id="3d_gradient3-logo-beded3c9-d3c1-4f49-9d8c-9f5016228576">
    <stop id="stop487950" stop-opacity="1" stop-color="#ffffff" offset="0%"></stop>
    <stop id="stop487952" stop-opacity="1" stop-color="#cccccc" offset="50%"></stop>
    <stop id="stop487954" stop-opacity="1" stop-color="#000000" offset="100%"></stop>
  </linearGradient>
  <g id="logo-group">
    <image xlink:href="" id="container" x="272" y="144" width="480" height="480" style="display: none;" transform="translate(0 0)"></image>
    <g id="logo-center" transform="translate(5.684341886080802e-14 0)">
      <image xlink:href="" id="icon_container" style="display: none;" x="0" y="0"></image>
      <g id="slogan" style="font-style:normal;font-weight:500;font-size:32px;line-height:1;font-family:Raleway;font-variant-ligatures:none;text-align:center;text-anchor:middle" transform="translate(0 0)"></g>
      <g id="title" style="font-style:normal;font-weight:700;font-size:72px;line-height:1;font-family:'Comfortaa Bold Alt2';font-variant-ligatures:none;text-align:center;text-anchor:middle" transform="translate(0 0)">
        <path id="path487973" style="font-style:normal;font-weight:700;font-size:72px;line-height:1;font-family:'Comfortaa Bold Alt2';font-variant-ligatures:none;text-align:center;text-anchor:middle" d="m 429.14825,-37.584 c -2.664,-1.44 -5.616,-2.16 -8.928,-2.16 -2.448,0 -4.68,0.432 -6.768,1.296 -2.16,0.864 -3.96,2.016 -5.472,3.528 v -17.64 c 0,-1.08 -0.36,-1.944 -1.008,-2.664 -0.72,-0.648 -1.584,-1.008 -2.664,-1.008 -1.08,0 -1.944,0.36 -2.664,1.008 -0.72,0.72 -1.008,1.584 -1.008,2.664 V -3.6 c 0,1.08 0.288,1.944 1.008,2.664 0.72,0.72 1.584,1.008 2.664,1.008 1.08,0 1.944,-0.288 2.664,-1.008 0.648,-0.72 1.008,-1.584 1.008,-2.664 v -20.304 c 0,-1.728 0.432,-3.24 1.368,-4.68 0.936,-1.368 2.232,-2.448 3.888,-3.312 1.656,-0.792 3.528,-1.224 5.544,-1.224 3.456,0 6.192,1.008 8.28,3.024 2.088,2.016 3.168,4.896 3.168,8.784 V -3.6 c 0,1.08 0.288,1.944 1.008,2.664 0.72,0.72 1.584,1.008 2.664,1.008 1.008,0 1.872,-0.288 2.592,-1.008 0.72,-0.72 1.08,-1.584 1.08,-2.664 v -17.712 c 0,-3.888 -0.792,-7.2 -2.232,-9.936 -1.512,-2.736 -3.6,-4.896 -6.192,-6.336 z" stroke-width="0" stroke-linejoin="miter" stroke-miterlimit="2" fill="#ef413b" stroke="#ef413b" transform="translate(0 324.48123999999996) translate(321.6995337499999 12.324560000000005) scale(1.67) translate(-400.63625 56.232)"></path>
        <path id="path487975" style="font-style:normal;font-weight:700;font-size:72px;line-height:1;font-family:'Comfortaa Bold Alt2';font-variant-ligatures:none;text-align:center;text-anchor:middle" d="m 467.639,0.288 c 5.544,0 10.224,-1.944 14.112,-5.832 3.888,-3.888 5.904,-8.568 5.904,-14.112 0,-5.544 -2.016,-10.224 -5.904,-14.112 -3.888,-3.888 -8.568,-5.904 -14.112,-5.904 -5.544,0 -10.224,2.016 -14.112,5.904 -3.888,3.888 -5.832,8.568 -5.832,14.112 0,5.544 1.944,10.224 5.832,14.112 3.888,3.888 8.568,5.832 14.112,5.832 z m 0,-33.048 c 3.6,0 6.696,1.296 9.288,3.816 2.52,2.592 3.816,5.688 3.816,9.288 0,3.6 -1.296,6.696 -3.816,9.216 -2.592,2.592 -5.688,3.816 -9.288,3.816 -3.6,0 -6.696,-1.224 -9.216,-3.816 -2.592,-2.52 -3.816,-5.616 -3.816,-9.216 0,-3.6 1.224,-6.696 3.816,-9.288 2.52,-2.52 5.616,-3.816 9.216,-3.816 z" stroke-width="0" stroke-linejoin="miter" stroke-miterlimit="2" fill="#ef413b" stroke="#ef413b" transform="translate(0 324.48123999999996) translate(400.28764624999985 39.97976000000001) scale(1.67) translate(-447.695 39.672)"></path>
        <path id="path487977" style="font-style:normal;font-weight:700;font-size:72px;line-height:1;font-family:'Comfortaa Bold Alt2';font-variant-ligatures:none;text-align:center;text-anchor:middle" d="m 514.92725,-7.2 c -2.088,0 -3.888,-0.72 -5.328,-2.232 -1.512,-1.44 -2.232,-3.24 -2.232,-5.328 v -16.92 h 6.408 c 0.864,0 1.656,-0.288 2.304,-0.936 0.576,-0.576 0.936,-1.368 0.936,-2.304 0,-0.864 -0.36,-1.656 -0.936,-2.304 -0.648,-0.576 -1.44,-0.936 -2.304,-0.936 h -6.408 v -10.152 c 0,-1.008 -0.36,-1.8 -1.08,-2.52 -0.72,-0.72 -1.512,-1.08 -2.52,-1.08 -1.008,0 -1.872,0.36 -2.592,1.08 -0.72,0.72 -1.008,1.512 -1.008,2.52 v 33.552 c 0,4.104 1.44,7.56 4.32,10.44 2.88,2.88 6.336,4.32 10.44,4.32 1.008,0 1.8,-0.288 2.52,-1.008 0.72,-0.72 1.08,-1.584 1.08,-2.592 0,-1.008 -0.36,-1.8 -1.08,-2.52 -0.72,-0.72 -1.512,-1.08 -2.52,-1.08 z" stroke-width="0" stroke-linejoin="miter" stroke-miterlimit="2" fill="#ef413b" stroke="#ef413b" transform="translate(0 324.48123999999996) translate(487.91630374999994 19.538960000000003) scale(1.67) translate(-500.16725 51.912)"></path>
        <path id="path487979" style="font-style:normal;font-weight:700;font-size:72px;line-height:1;font-family:'Comfortaa Bold Alt2';font-variant-ligatures:none;text-align:center;text-anchor:middle" d="m 544.25937,0.288 c 4.75201,0 8.928,-1.44 12.6,-4.464 0.79201,-0.576 1.15201,-1.368 1.29601,-2.304 0.072,-1.008 -0.144,-1.8 -0.792,-2.592 -0.57601,-0.72 -1.36801,-1.152 -2.304,-1.224 -0.93601,-0.072 -1.80001,0.144 -2.52001,0.792 -2.448,1.944 -5.184,2.88 -8.28,2.88 -3.6,0 -6.696,-1.224 -9.216,-3.816 -2.592,-2.52 -3.81599,-5.616 -3.81599,-9.216 0,-3.6 1.22399,-6.696 3.81599,-9.288 2.52,-2.52 5.616,-3.816 9.216,-3.816 2.952,0 5.616,0.936 7.99201,2.736 2.304,1.8 3.81599,4.104 4.60799,6.912 h -12.6 c -0.936,0 -1.79999,0.36 -2.448,1.008 -0.648,0.648 -1.008,1.512 -1.008,2.448 0,0.936 0.36,1.8 1.008,2.448 0.64801,0.648 1.512,1.008 2.448,1.008 h 16.56001 c 0.93599,0 1.72799,-0.36 2.376,-1.008 0.72,-0.648 1.07999,-1.512 1.07999,-2.448 0,-5.544 -2.016,-10.224 -5.904,-14.112 -3.88799,-3.888 -8.568,-5.904 -14.112,-5.904 -5.544,0 -10.22399,2.016 -14.112,5.904 -3.888,3.888 -5.83199,8.568 -5.83199,14.112 0,5.544 1.94399,10.224 5.83199,14.112 3.88801,3.888 8.568,5.832 14.112,5.832 z" stroke-width="0" stroke-linejoin="miter" stroke-miterlimit="2" fill="#ef413b" stroke="#ef413b" transform="translate(0 324.48123999999996) translate(528.2436808499999 39.97976000000001) scale(1.67) translate(-524.31538 39.672)"></path>
        <path id="path487981" style="font-style:normal;font-weight:700;font-size:72px;line-height:1;font-family:'Comfortaa Bold Alt2';font-variant-ligatures:none;text-align:center;text-anchor:middle" d="m 571.62612,-55.224 c -0.72,0.72 -1.008,1.584 -1.008,2.592 v 39.312 c 0,2.592 0.432,4.896 1.36801,6.912 0.864,2.016 2.15999,3.6 3.816,4.752 1.65599,1.152 3.52799,1.656 5.616,1.656 h 0.144 c 1.43999,0 2.592,-0.288 3.52799,-1.008 0.864,-0.648 1.368,-1.512 1.368,-2.592 0,-1.008 -0.36,-1.872 -0.936,-2.592 -0.57599,-0.648 -1.36799,-1.008 -2.304,-1.008 h -1.79999 c -1.08001,0 -1.94401,-0.576 -2.592,-1.728 -0.72,-1.152 -1.00801,-2.592 -1.00801,-4.392 v -39.312 c 0,-1.008 -0.36,-1.872 -1.008,-2.592 -0.72,-0.648 -1.58399,-1.008 -2.592,-1.008 -1.08,0 -1.94399,0.36 -2.592,1.008 z" stroke-width="0" stroke-linejoin="miter" stroke-miterlimit="2" fill="#ef413b" stroke="#ef413b" transform="translate(0 324.48123999999996) translate(605.5692566499999 12.324560000000005) scale(1.67) translate(-570.61812 56.232)"></path>
        <path id="path487983" style="font-style:normal;font-weight:700;font-size:72px;line-height:1;font-family:'Comfortaa Bold Alt2';font-variant-ligatures:none;text-align:center;text-anchor:middle" d="m 608.525,0.288 c 4.752,0 8.928,-1.44 12.6,-4.464 0.792,-0.576 1.152,-1.368 1.296,-2.304 0.072,-1.008 -0.144,-1.8 -0.792,-2.592 -0.576,-0.72 -1.368,-1.152 -2.304,-1.224 -0.936,-0.072 -1.8,0.144 -2.52,0.792 -2.448,1.944 -5.184,2.88 -8.28,2.88 -3.6,0 -6.696,-1.224 -9.216,-3.816 -2.592,-2.52 -3.816,-5.616 -3.816,-9.216 0,-3.6 1.224,-6.696 3.816,-9.288 2.52,-2.52 5.616,-3.816 9.216,-3.816 2.952,0 5.616,0.936 7.992,2.736 2.304,1.8 3.816,4.104 4.608,6.912 h -12.6 c -0.936,0 -1.8,0.36 -2.448,1.008 -0.648,0.648 -1.008,1.512 -1.008,2.448 0,0.936 0.36,1.8 1.008,2.448 0.648,0.648 1.512,1.008 2.448,1.008 h 16.56 c 0.936,0 1.728,-0.36 2.376,-1.008 0.72,-0.648 1.08,-1.512 1.08,-2.448 0,-5.544 -2.016,-10.224 -5.904,-14.112 -3.888,-3.888 -8.568,-5.904 -14.112,-5.904 -5.544,0 -10.224,2.016 -14.112,5.904 -3.888,3.888 -5.832,8.568 -5.832,14.112 0,5.544 1.944,10.224 5.832,14.112 3.888,3.888 8.568,5.832 14.112,5.832 z" stroke-width="0" stroke-linejoin="miter" stroke-miterlimit="2" fill="#ef413b" stroke="#ef413b" transform="translate(0 324.48123999999996) translate(635.56726625 39.97976000000001) scale(1.67) translate(-588.581 39.672)"></path>
      </g>
      <image xlink:href="" id="icon" style="display: none;" x="0" y="0"></image>
    </g>
  </g>
</svg>