<svg id="fgG44iRW1y" viewBox="0 0 320 121.0213036445792" height="121.0213036445792" width="320" style="width: 320px; height: 121.021px; position: absolute; top: 50%; left: 50%; z-index: 0; cursor: pointer; transform: translate(-50%, -50%) scale(0.479875);"><defs id="SvgjsDefs1181"></defs><g id="SvgjsG1182" featurekey="G09qjj-0" transform="matrix(0.23636973368081876,0,0,0.23636973368081876,-10.510652723968581,0)" fill="#3fbac2"><g xmlns="http://www.w3.org/2000/svg"><path d="M256,0C139.167,0,44.467,94.708,44.467,211.533C44.467,372.184,256,512,256,512s211.533-139.816,211.533-300.467   C467.533,94.708,372.833,0,256,0z M256,375.941c-90.8,0-164.4-73.6-164.4-164.408c0-90.8,73.601-164.408,164.4-164.408   s164.417,73.608,164.417,164.408C420.417,302.342,346.8,375.941,256,375.941z"></path><path d="M338.708,205.15H162.066c-5.417,0-9.808,4.383-9.808,9.8v58.884h19.625v9.816h39.25v-9.816h78.508v9.816h39.25v-9.816   h19.633V214.95C348.524,209.533,344.125,205.15,338.708,205.15z"></path><polygon points="191.508,166.05 240.575,166.05 240.575,195.333 260.2,195.333 260.2,166.05 309.267,166.05 309.267,195.333    328.892,195.333 328.892,146.267 171.883,146.267 171.883,195.333 191.508,195.333  "></polygon></g></g><g id="SvgjsG1183" featurekey="0yvIkK-0" transform="matrix(3.508771929824561,0,0,3.508771929824561,113.1929818370886,16.87719258090906)" fill="#f5f5f5"><path d="M3.26 5.84 l0 6.24 l7.92 0 l0 -6.24 l1.32 0 l0 14.16 l-1.32 0 l0 -6.72 l-7.92 0 l0 6.72 l-1.32 0 l0 -14.16 l1.32 0 z M16.72 15.379999999999999 q0 1.66 1.04 2.72 t2.62 1.06 q1.64 0 2.65 -1.08 t1.01 -2.7 q0 -1.6 -1 -2.68 t-2.68 -1.1 q-1.62 0 -2.62 1.08 t-1.02 2.7 z M20.38 10.52 q2.12 0 3.48 1.38 t1.38 3.48 q0 2.14 -1.39 3.49 t-3.47 1.37 q-2.18 -0.02 -3.51 -1.4 t-1.35 -3.46 q0 -2.14 1.37 -3.49 t3.49 -1.37 z M28.6 8.1 l1.2 0 l0 2.66 l2.64 0 l0 1.08 l-2.64 0 l0 6.04 q0 0.58 0.34 0.93 t0.94 0.35 q0.66 0 1.36 -0.32 l0.1 1.08 q-0.9 0.32 -1.58 0.32 q-1.18 0 -1.77 -0.66 t-0.59 -1.7 l0 -6.04 l-2 0 l0 -1.08 l2 0 l0 -2.66 z M41.82000000000001 14.6 q0 -1.26 -0.94 -2.13 t-2.28 -0.87 q-1.3 0 -2.24 0.87 t-1.1 2.13 l6.56 0 z M38.68000000000001 10.52 q1.92 0 3.12 1.24 t1.22 3.2 l0 0.72 l-7.76 0 q0.08 1.56 1.03 2.51 t2.47 0.97 q0.94 0 1.79 -0.45 t1.31 -1.19 l0.88 0.74 q-1.3 1.98 -4 1.98 q-2.12 -0.02 -3.39 -1.38 t-1.29 -3.5 q0 -2.08 1.31 -3.45 t3.31 -1.39 z M45.900000000000006 4.880000000000001 l1.2 0 l0 15.12 l-1.2 0 l0 -15.12 z M57.74000000000001 14.6 q0 -1.26 -0.94 -2.13 t-2.28 -0.87 q-1.3 0 -2.24 0.87 t-1.1 2.13 l6.56 0 z M54.60000000000001 10.52 q1.92 0 3.12 1.24 t1.22 3.2 l0 0.72 l-7.76 0 q0.08 1.56 1.03 2.51 t2.47 0.97 q0.94 0 1.79 -0.45 t1.31 -1.19 l0.88 0.74 q-1.3 1.98 -4 1.98 q-2.12 -0.02 -3.39 -1.38 t-1.29 -3.5 q0 -2.08 1.31 -3.45 t3.31 -1.39 z"></path></g></svg>