<svg id="dL3VhUWkY" viewBox="0 0 296.875 303.8352450562227" height="303.8352450562227" width="296.875" style="width: 296.875px; height: 303.835px; position: absolute; top: 50%; left: 50%; z-index: 0; cursor: pointer; transform: translate(-50%, -50%) scale(0.442345);"><defs id="SvgjsDefs1001"></defs><g id="SvgjsG1007" featurekey="rootContainer" transform="matrix(2.870724373203907,0,0,2.870724373203907,-0.35551616503170297,0.11259048810220063)" fill="#0dceda"><g xmlns="http://www.w3.org/2000/svg"><path d="M40.7 103.4a3 3 0 0 0-1.9-.4c.3.8-.2.8-.7.7s-1-.6-1.5 0 2 .4 3 .8a.9.9 0 0 0 1.1 0 3.7 3.7 0 0 0 0-1.1zM11.9 87c-.7-.2-1.1-.6-1.7-.8s-.5-.7-.8-1.1H9a2 2 0 0 0 1.1 1.6 4.7 4.7 0 0 0 1.5 1.8c0-.5 1.8-1.2.3-1.5zm3.5 4.5a2.4 2.4 0 0 1-1.1-1.1.2.2 0 0 0-.4 0l-.4.4 2.2 1.9V92zm-7.5-8.6h-.8l1.1 1.5a.8.8 0 0 0 .4-.7.3.3 0 0 0 .1-.4 1 1 0 0 0-.8-.4zm2.4-62.1c0-.4.1-.8-.6-.7h-.3L9 21.6c.7.2 1.1-.2 1.3-.8zm17.8 79.3v.7h.7c.2 0 .6-.1.5-.3s-.8-.4-1.2-.4z"></path><path d="M103.4 57.2v-2.3c0-1.2.5-2.5-.4-3.7v-.4a6 6 0 0 0 0-4.2l-.2-1.4-.3-1.6v-.8c-.2-1 .1-2.1-1.1-2.7a.2.2 0 0 0 0-.2v-1.1a3.7 3.7 0 0 0-.8-1.9c-.2-.7-.2-1.4-.7-2v-.6l-.4-1.2c-.2-.5-.2-1.1-.7-1.5l-3-5.9h-.3V25l-1-.9c-1.1-1.7-2-3.6-3.4-5.1l-.4-.8-.8-.3-.7-.8-3.2-3.7h-.4c-.1-.3-.4-.3-.7-.3a4 4 0 0 0-2.7-1.9c-.3-1.4-1.5-1.7-2.6-2.2l-.3-.3a2.1 2.1 0 0 0-1.5-.8l-.4-.7h-.7l-3.5-2.1C72 5 71 4.1 69.8 3.7h-.7A1 1 0 0 0 68 3l-1.8-.5-1.5-.6-.8-.4h-.7l-1.5-.3a1.1 1.1 0 0 0-1.1.3c-.1-.7-.7-.7-1.2-.8h-.7l-1 .3c-.5-1.2-1.6-.5-2.4-.7L53.5 0h-.4c-1.1.1-2.3-.3-3.4.3h-4.5l-.4.4h-2.2l-1.9.3c-.8.2-1.6.1-2.3.7a3.7 3.7 0 0 1-2.6.1l-1.1.6h-.4l-.3.2a2 2 0 0 0-1.4.7h-.1l-.9.4h-.1c-.3-.1-.6.2-.9.1l-.3.4-.8.6c-.2-.3-.4-.2-.7-.2v.7a1.8 1.8 0 0 0-1.9.4h-.7l-1.2 1h.2l-.8.8H24a2.5 2.5 0 0 0-1.9 1.4c-.6.5-1.5.6-1.9 1.4h-.3v.4a2 2 0 0 0-1.6 1.1 2.3 2.3 0 0 0-1.1 1.2 1.7 1.7 0 0 0-1.5 1.1 4.5 4.5 0 0 0-1.9 1.9l-.3.4c.2.4.9.4 1.4.5a50.9 50.9 0 0 0 28.6 86.2.8.8 0 0 0 .7.3h.7a51.3 51.3 0 0 0 6 .4h.8a1.4 1.4 0 0 1 .1.6c-1.5.9-3.1-1.4-4.6.1.3.3.8.3.8.9l4.8.4H54a2 2 0 0 1 0-.3 3.4 3.4 0 0 0 1.8-.5c.6-.1 1.2 1 1.7-.1.9 0 1.9.4 2.6-.7h.1c.9 0 1.9.6 2.6-.4l2.6-.3.4.2 2.3-1.3h1c.6.2 1-.2 1.3-.7s2.1-1 3.3-1a3 3 0 0 0 2.7-1.2l2.6-1.7c.7.1.9-.7 1.4-.8s.9-.8 1.5-1.1l.3-.3h.1c.4.1.6-.2.7-.5l.4-.4 2.3-2.6 1.1-1.1.7-.4c.6.1.7-.6 1.1-.8l.9-1.1.6-.4a1.9 1.9 0 0 0 1.3-1.3v-.2a1.8 1.8 0 0 0 .5-.7h.2a1.5 1.5 0 0 0 .5-.5c-.1-.9 1.1-1.1 1.1-2l.9-1.4a1.9 1.9 0 0 0 1.2-1.7c.2-.5.8-.7.6-1.4l.8-.8v-.9c.3 0 .5-.3.7-.5l.4-.7.7-1.6.4-1 .8-1.8.3-.4.2-1.1.5-1.4a1.2 1.2 0 0 0 .3-1.2c.5-.2.3-.7.5-1.1a.5.5 0 0 1 0-.4V65c.5-.5.4-1.1.4-1.7v-.5c.6-.9.2-2.1.6-3s-.3-.6.1-.8h.3v-1h-.1zm-2.9-19.5zM82.2 11.9zM65.8 3zm0 0zM56.4.8zm.1 103zm39.9-24.9zM102 62z"></path></g></g><g id="SvgjsG1008" featurekey="symbolFeature-0" transform="matrix(0.18984375,0,0,0.18984375,99.55821814835072,64)" fill="#ffffff"><g xmlns="http://www.w3.org/2000/svg"><path d="M256,0C139.167,0,44.467,94.708,44.467,211.533C44.467,372.184,256,512,256,512s211.533-139.816,211.533-300.467   C467.533,94.708,372.833,0,256,0z M256,375.941c-90.8,0-164.4-73.6-164.4-164.408c0-90.8,73.601-164.408,164.4-164.408   s164.417,73.608,164.417,164.408C420.417,302.342,346.8,375.941,256,375.941z"></path><path d="M338.708,205.15H162.066c-5.417,0-9.808,4.383-9.808,9.8v58.884h19.625v9.816h39.25v-9.816h78.508v9.816h39.25v-9.816   h19.633V214.95C348.524,209.533,344.125,205.15,338.708,205.15z"></path><polygon points="191.508,166.05 240.575,166.05 240.575,195.333 260.2,195.333 260.2,166.05 309.267,166.05 309.267,195.333    328.892,195.333 328.892,146.267 171.883,146.267 171.883,195.333 191.508,195.333  "></polygon></g></g><g id="SvgjsG1009" featurekey="nameFeature-0" transform="matrix(2.172545835251841,0,0,2.172545835251841,50.39294541207802,148.58561597229044)" fill="#ffffff"><path d="M10.64 15.36 l4.04 -0.44 l0 25.52 l-5 -0.28 l0.44 -11.28 l-4.04 -0.16 l-0.04 13.44 l-4.84 -0.36 l0.52 -25.96 l4.44 -0.56 l-0.04 10.4 c1.24 0 2.92 0.04 4.12 0.08 z M24.155 41.52 c-10.68 0.44 -9.16 -26.16 1.16 -26.16 c10.4 0 9.8 25.72 -1.16 26.16 z M25.195 35.92 c2.56 0.08 3.4 -6.28 3.52 -9.2 s-0.8 -7 -3.24 -6.92 s-3.76 6.32 -3.68 8.72 c0.12 3.08 0.8 7.32 3.4 7.4 z M47.550000000000004 15.280000000000001 l-0.36 4.72 l-4.12 0.16 l0.28 19.92 l-6.04 1 l1.12 -20.76 l-4.36 0.16 l0.12 -4.4 z M60.745000000000005 41.6 l-10.92 -0.2 l-0.56 -24.04 l10.68 -1.4 l-0.12 4.52 l-6.12 0 l0 7.64 l5.12 -0.44 l0.28 4.56 l-5.2 -0.08 l-0.28 5.8 l7.52 -0.28 z M75.06 41.48 l-10.84 -0.24 l0.08 -25.56 l4.8 -0.16 l-1.28 21.56 l7.24 0.56 l0 3.84 z M88.25500000000001 41.6 l-10.92 -0.2 l-0.56 -24.04 l10.68 -1.4 l-0.12 4.52 l-6.12 0 l0 7.64 l5.12 -0.44 l0.28 4.56 l-5.2 -0.08 l-0.28 5.8 l7.52 -0.28 z"></path></g></svg>